<svg xmlns="http://www.w3.org/2000/svg" viewBox="0 0 256 256">
  <rect width="256" height="256" fill="#1A1F3D"/>
  <path d="M180 80 Q200 80 200 100 L200 156 Q200 176 180 176 L100 176 L100 136 L160 136" fill="none" stroke="#00D4FF" stroke-width="20" stroke-linecap="round" stroke-linejoin="round"/>
  <circle cx="120" cy="90" r="6" fill="#00D4FF"/>
  <circle cx="150" cy="85" r="5" fill="#00D4FF"/>
  <circle cx="175" cy="95" r="5" fill="#00D4FF"/>
  <circle cx="110" cy="115" r="5" fill="#00D4FF"/>
  <circle cx="140" cy="110" r="6" fill="#00D4FF"/>
  <circle cx="170" cy="120" r="5" fill="#00D4FF"/>
  <circle cx="185" cy="140" r="5" fill="#00D4FF"/>
  <circle cx="120" cy="155" r="5" fill="#00D4FF"/>
  <circle cx="150" cy="160" r="6" fill="#00D4FF"/>
  <line x1="120" y1="90" x2="110" y2="115" stroke="#00D4FF" stroke-width="1.5" opacity="0.6"/>
  <line x1="150" y1="85" x2="140" y2="110" stroke="#00D4FF" stroke-width="1.5" opacity="0.6"/>
  <line x1="175" y1="95" x2="170" y2="120" stroke="#00D4FF" stroke-width="1.5" opacity="0.6"/>
  <line x1="140" y1="110" x2="120" y2="155" stroke="#00D4FF" stroke-width="1.5" opacity="0.6"/>
  <line x1="170" y1="120" x2="150" y2="160" stroke="#00D4FF" stroke-width="1.5" opacity="0.6"/>
  <line x1="170" y1="120" x2="185" y2="140" stroke="#00D4FF" stroke-width="1.5" opacity="0.6"/>
</svg>